<?xml version="1.0" encoding="UTF-8" standalone="no"?>
<svg
   data-name="Layer 1"
   viewBox="-5 -10 110 110"
   x="0px"
   y="0px"
   version="1.1"
   id="svg8"
   sodipodi:docname="en_icon.svg"
   inkscape:version="1.3.2 (091e20ef0f, 2023-11-25, custom)"
   width="110"
   height="110"
   xmlns:inkscape="http://www.inkscape.org/namespaces/inkscape"
   xmlns:sodipodi="http://sodipodi.sourceforge.net/DTD/sodipodi-0.dtd"
   xmlns="http://www.w3.org/2000/svg"
   xmlns:svg="http://www.w3.org/2000/svg">
  <defs
     id="defs12" />
  <sodipodi:namedview
     id="namedview10"
     pagecolor="#ffffff"
     bordercolor="#666666"
     borderopacity="1.0"
     inkscape:pageshadow="2"
     inkscape:pageopacity="0.0"
     inkscape:pagecheckerboard="true"
     showgrid="true"
     inkscape:zoom="6.7463225"
     inkscape:cx="28.163492"
     inkscape:cy="68.481754"
     inkscape:window-width="1920"
     inkscape:window-height="1052"
     inkscape:window-x="0"
     inkscape:window-y="0"
     inkscape:window-maximized="1"
     inkscape:current-layer="svg8"
     inkscape:showpageshadow="false"
     inkscape:deskcolor="#505050"
     showguides="true"
     inkscape:document-units="px">
    <inkscape:grid
       id="grid1"
       units="px"
       originx="2.7755576e-17"
       originy="55"
       spacingx="1"
       spacingy="1"
       empcolor="#0099e5"
       empopacity="0.30196078"
       color="#0099e5"
       opacity="0.14901961"
       empspacing="5"
       dotted="false"
       gridanglex="30"
       gridanglez="30"
       visible="true" />
  </sodipodi:namedview>
  <path
     d="m 49.99684,14.73997 c -12.056728,0 -22.614658,6.15783 -28.31809,15.309755 -0.07373,0.09028 -0.136924,0.188494 -0.183268,0.295639 -2.742704,4.513957 -4.312069,9.738242 -4.312069,15.301818 0,5.563575 1.570418,10.789845 4.315229,15.303802 0.04529,0.100199 0.10322,0.192463 0.172735,0.277781 5.701325,9.156885 16.263469,15.319676 28.325463,15.319676 12.061994,0 22.624138,-6.162791 28.325463,-15.319676 0.06952,-0.08532 0.128498,-0.178574 0.172736,-0.278774 2.743756,-4.514948 4.314175,-9.739234 4.314175,-15.303801 0,-5.564568 -1.569365,-10.786869 -4.312069,-15.300826 -0.0474,-0.107145 -0.109539,-0.206352 -0.184321,-0.296631 C 72.609392,20.8978 62.052515,14.73997 49.994734,14.73997 Z M 76.42116,59.160282 H 63.385948 c 0.859466,-3.77585 1.350287,-7.922739 1.432442,-12.223399 h 15.220735 c -0.210653,4.409789 -1.496689,8.560646 -3.616912,12.223399 z M 49.99684,73.969037 c -3.701174,0 -7.568764,-4.570506 -9.904907,-12.229352 h 19.810868 c -2.337197,7.657853 -6.203733,12.229352 -9.904908,12.229352 z M 39.391512,59.160282 C 38.537314,55.587807 38.000148,51.473659 37.913781,46.936883 H 62.0799 C 61.99353,51.474651 61.456367,55.5888 60.602169,59.160282 Z M 19.954555,46.936883 H 35.17529 c 0.08216,4.30066 0.572977,8.447549 1.433495,12.223399 H 23.572521 c -2.121276,-3.663745 -3.40626,-7.81361 -3.616913,-12.223399 z M 23.573574,32.128128 H 36.608785 C 35.748267,35.905963 35.256392,40.053844 35.17529,44.35748 H 19.954555 c 0.210653,-4.411774 1.49669,-8.564614 3.619019,-12.229352 z M 49.99684,17.319375 c 3.701175,0 7.567711,4.570504 9.904907,12.22935 H 40.092986 c 2.337197,-7.658846 6.203733,-12.22935 9.904907,-12.22935 z m 10.604275,14.808753 c 0.855252,3.573466 1.392417,7.6896 1.478785,12.229352 H 37.913781 c 0.08637,-4.539752 0.623533,-8.655886 1.478784,-12.229352 H 60.602169 Z M 64.81839,44.35748 C 64.73623,40.053844 64.245414,35.905963 63.384895,32.128128 h 13.034158 c 2.122329,3.664738 3.408366,7.817578 3.619019,12.229352 H 64.817337 Z M 74.728562,29.548725 H 62.724498 c -0.548751,-1.914712 -1.199669,-3.710374 -1.946434,-5.352264 -1.153325,-2.535752 -2.488866,-4.596298 -3.957118,-6.139973 7.377071,1.61808 13.718781,5.801675 17.907616,11.49323 z M 43.175894,18.054504 c -1.468251,1.543675 -2.804846,3.60422 -3.958171,6.140965 -0.746765,1.642882 -1.397683,3.438544 -1.946434,5.353256 H 25.266172 C 29.455007,23.856179 35.79777,19.672584 43.176948,18.054504 Z M 25.264066,61.739685 h 12.007223 c 0.548751,1.914712 1.199669,3.710375 1.947487,5.353256 1.153326,2.536744 2.48992,4.596299 3.958172,6.139974 C 35.79777,71.614835 29.453953,67.43124 25.265119,61.738693 Z m 31.557933,11.49323 c 1.468252,-1.543675 2.803793,-3.604222 3.957118,-6.139974 0.746765,-1.642881 1.397683,-3.438544 1.946434,-5.353256 h 12.005117 c -4.188834,5.691555 -10.530545,9.87515 -17.908669,11.49323 z M 95.500007,45.64619 c 0,11.446601 -4.733374,22.207675 -13.326966,30.302043 -8.594645,8.094368 -20.02152,12.551777 -32.176202,12.551777 -12.154681,0 -23.577343,-4.457409 -32.170934,-12.551777 C 9.2323141,67.853865 4.4999929,57.092791 4.4999929,45.64619 4.4999929,34.199589 9.2323141,23.434545 17.825905,15.339186 25.852841,7.7785564 36.349681,3.3915852 47.602768,2.8459421 l -3.335692,-3.1419124 c -0.535059,-0.5039758 -0.535059,-1.3204564 0,-1.8234401 0.535059,-0.5039763 1.401896,-0.5039763 1.935901,0 l 5.609691,5.2838097 c 0.535059,0.5039758 0.535059,1.3204563 0,1.8234402 l -5.609691,5.2848015 c -0.267529,0.251988 -0.618266,0.377982 -0.96795,0.377982 -0.349684,0 -0.700422,-0.125994 -0.96795,-0.377982 -0.53506,-0.503975 -0.53506,-1.320455 0,-1.823439 L 47.462683,5.4392351 C 25.060785,6.6803252 7.2384826,24.238129 7.2384826,45.647182 c 0,22.207675 19.1810144,40.274416 42.7583564,40.274416 23.577343,0 42.764679,-18.066741 42.764679,-40.274416 0,-0.356157 -0.0053,-0.713305 -0.0158,-1.05954 -0.02212,-0.712312 0.572975,-1.305576 1.32922,-1.326409 0.756245,-0.01885 1.386097,0.539691 1.408216,1.252004 0.01159,0.371037 0.01685,0.752987 0.01685,1.133945 z"
     id="path2"
     style="mix-blend-mode:normal;fill:#000000;fill-opacity:1;stroke:#000000;stroke-width:0.9;stroke-dasharray:none;stroke-opacity:1;image-rendering:auto;stroke-dashoffset:0" />
  <text
     xml:space="preserve"
     style="font-style:normal;font-weight:normal;font-size:29.6598px;line-height:1.25;font-family:sans-serif;fill:#000000;fill-opacity:1;stroke:#000000;stroke-width:0.8;stroke-linejoin:miter;stroke-dasharray:none;stroke-opacity:1"
     x="71.443672"
     y="98.725639"
     id="text7753"
     transform="scale(0.99678269,1.0032277)"><tspan
       sodipodi:role="line"
       id="tspan7751"
       x="71.443672"
       y="98.725639"
       style="stroke:#000000;stroke-width:0.8;stroke-linejoin:miter;stroke-dasharray:none;stroke-opacity:1">en</tspan></text>
</svg>
