<?xml version="1.0" encoding="UTF-8" standalone="no"?>
<svg
   data-name="Layer 1"
   viewBox="-5.0 -10.0 110.0 135.0"
   x="0px"
   y="0px"
   version="1.1"
   id="svg8"
   sodipodi:docname="en_icon.svg"
   inkscape:version="1.1.2 (0a00cf5339, 2022-02-04)"
   xmlns:inkscape="http://www.inkscape.org/namespaces/inkscape"
   xmlns:sodipodi="http://sodipodi.sourceforge.net/DTD/sodipodi-0.dtd"
   xmlns="http://www.w3.org/2000/svg"
   xmlns:svg="http://www.w3.org/2000/svg">
  <defs
     id="defs12" />
  <sodipodi:namedview
     id="namedview10"
     pagecolor="#ffffff"
     bordercolor="#666666"
     borderopacity="1.0"
     inkscape:pageshadow="2"
     inkscape:pageopacity="0.0"
     inkscape:pagecheckerboard="0"
     showgrid="false"
     inkscape:zoom="4.7703704"
     inkscape:cx="54.92236"
     inkscape:cy="67.395186"
     inkscape:window-width="1680"
     inkscape:window-height="1021"
     inkscape:window-x="0"
     inkscape:window-y="0"
     inkscape:window-maximized="1"
     inkscape:current-layer="svg8" />
  <path
     d="M49.997,21.512c-11.447,0-21.471,6.207-26.886,15.432-.07,.091-.13,.19-.174,.298-2.604,4.55-4.094,9.816-4.094,15.424s1.491,10.876,4.097,15.426c.043,.101,.098,.194,.164,.28,5.413,9.23,15.441,15.442,26.893,15.442s21.48-6.212,26.893-15.442c.066-.086,.122-.18,.164-.281,2.605-4.551,4.096-9.817,4.096-15.426s-1.49-10.873-4.094-15.423c-.045-.108-.104-.208-.175-.299-5.415-9.224-15.438-15.431-26.886-15.431Zm25.088,44.775h-12.376c.816-3.806,1.282-7.986,1.36-12.321h14.451c-.2,4.445-1.421,8.629-3.434,12.321Zm-25.088,14.927c-3.514,0-7.186-4.607-9.404-12.327h18.809c-2.219,7.719-5.89,12.327-9.404,12.327Zm-10.069-14.927c-.811-3.601-1.321-7.748-1.403-12.321h22.944c-.082,4.574-.592,8.721-1.403,12.321h-20.138Zm-18.454-12.321h14.451c.078,4.335,.544,8.515,1.361,12.321h-12.377c-2.014-3.693-3.234-7.876-3.434-12.321Zm3.436-14.927h12.376c-.817,3.808-1.284,7.989-1.361,12.327h-14.451c.2-4.447,1.421-8.633,3.436-12.327Zm25.087-14.927c3.514,0,7.185,4.607,9.404,12.327h-18.807c2.219-7.72,5.89-12.327,9.404-12.327Zm10.068,14.927c.812,3.602,1.322,7.751,1.404,12.327h-22.944c.082-4.576,.592-8.725,1.404-12.327h20.137Zm4.004,12.327c-.078-4.338-.544-8.519-1.361-12.327h12.375c2.015,3.694,3.236,7.88,3.436,12.327h-14.451Zm9.409-14.927h-11.397c-.521-1.93-1.139-3.74-1.848-5.395-1.095-2.556-2.363-4.633-3.757-6.189,7.004,1.631,13.025,5.848,17.002,11.585Zm-29.957-11.586c-1.394,1.556-2.663,3.633-3.758,6.19-.709,1.656-1.327,3.466-1.848,5.396h-11.398c3.977-5.738,9.999-9.955,17.005-11.586Zm-17.006,44.034h11.4c.521,1.93,1.139,3.74,1.849,5.396,1.095,2.557,2.364,4.633,3.758,6.189-7.006-1.631-13.029-5.848-17.006-11.586Zm29.962,11.585c1.394-1.556,2.662-3.633,3.757-6.189,.709-1.656,1.327-3.466,1.848-5.396h11.398c-3.977,5.737-9.998,9.954-17.003,11.585Zm36.722-27.807c0,11.538-4.494,22.385-12.653,30.544-8.16,8.159-19.009,12.652-30.549,12.652s-22.385-4.493-30.544-12.652c-8.159-8.159-12.652-19.006-12.652-30.544s4.493-22.389,12.652-30.549c7.621-7.621,17.587-12.043,28.271-12.593l-3.167-3.167c-.508-.508-.508-1.331,0-1.838,.508-.508,1.331-.508,1.838,0l5.326,5.326c.508,.508,.508,1.331,0,1.838l-5.326,5.327c-.254,.254-.587,.381-.919,.381s-.665-.127-.919-.381c-.508-.508-.508-1.331,0-1.838l3.034-3.034C26.322,13.388,9.401,31.086,9.401,52.666c0,22.385,18.211,40.596,40.596,40.596s40.602-18.211,40.602-40.596c0-.359-.005-.719-.015-1.068-.021-.718,.544-1.316,1.262-1.337,.718-.019,1.316,.544,1.337,1.262,.011,.374,.016,.759,.016,1.143Z"
     id="path2" />
  <text
     xml:space="preserve"
     style="font-style:normal;font-weight:normal;font-size:30.3731px;line-height:1.25;font-family:sans-serif;fill:#000000;fill-opacity:1;stroke:none;stroke-width:0.759329"
     x="65.413414"
     y="113.92395"
     id="text7753"><tspan
       sodipodi:role="line"
       id="tspan7751"
       x="65.413414"
       y="113.92395"
       style="stroke-width:0.759329">en</tspan></text>
</svg>
